<?xml version="1.0" encoding="utf-8"?>
<!-- Generator: Adobe Illustrator 22.0.1, SVG Export Plug-In . SVG Version: 6.00 Build 0)  -->
<svg version="1.1" id="Layer_1" xmlns="http://www.w3.org/2000/svg" xmlns:xlink="http://www.w3.org/1999/xlink" x="0px" y="0px"
	 viewBox="0 0 174.6 80" style="enable-background:new 0 0 174.6 80;" xml:space="preserve">
<style type="text/css">
	.st0{fill:#FFFFFF;}
	.st1{fill:#78B400;}
</style>
<g>
	<path class="st0" d="M66.4,48c-2.7,2.9-7.1,4.6-14.2,5.2c-0.7,0.1-1.4,0.1-2.1,0.1c-3.4,0-6-0.9-7.7-2.6c-2.1-2.1-2.2-4.7-2.2-5.2
		V3.6c0-0.9,0.7-1.5,1.5-1.5c0.9,0,1.5,0.7,1.5,1.5v42c0,0,0,0.1,0,0.1c0,0-0.1,1.6,1.3,2.9c1.4,1.3,3.9,1.9,7.4,1.6
		c6.3-0.6,10.1-1.9,12.3-4.2c0.6-0.6,1.6-0.7,2.2-0.1C66.9,46.4,66.9,47.4,66.4,48z"/>
	<path class="st0" d="M94.1,44.8c-0.2,0.3-3.9,6.3-9.7,7.9c-1.7,0.5-3.6,0.5-5.6,0c-6.8-1.8-8.9-8.4-9-11.7
		c-0.5-6.4,3.4-11.8,7.3-13.7c2.7-1.3,7.2-1.1,9.3,1.1c0.9,1,2.2,3.3,0,7.2c-4.3,7.6-13,6.4-13.4,6.3c0,0,0,0,0,0
		c0.4,2.1,1.7,6.5,6.6,7.8c6.7,1.8,11.8-6.4,11.8-6.5c0.4-0.7,1.4-1,2.1-0.5C94.3,43.2,94.5,44.1,94.1,44.8z M72.9,38.9
		c0.2,0,0.4-0.1,0.6,0c0.3,0,7,0.9,10.2-4.8c0.6-1.2,1.3-2.7,0.4-3.6c-1.1-1.2-4.1-1.2-5.7-0.4C76.3,31.1,73.3,34.3,72.9,38.9z"/>
	<path class="st0" d="M120,51.4c-0.3,0.3-0.6,0.5-1,0.5c-0.4,0-0.9-0.1-1.2-0.4c-0.2-0.2-5.1-4.8-7.6-10c-0.4,0.8-0.7,1.7-1,2.4
		c-2.7,6.4-3.8,9.1-5.8,9.2c0,0-0.1,0-0.1,0c-0.5,0-1-0.2-1.3-0.5c-0.7-0.6-1.8-1.7-3.1-20.5c-0.6-9-1-18-1-18
		c0-0.9,0.6-1.6,1.5-1.6c0.9,0,1.6,0.6,1.6,1.5c0.5,14.1,1.6,29.5,2.7,34.8c0.8-1.5,1.8-3.9,2.7-6c2.3-5.5,5.1-12.3,8.6-16.1
		c0.6-0.6,1.6-0.7,2.2-0.1c0.6,0.6,0.7,1.6,0.1,2.2c-1.9,2.1-3.7,5.4-5.3,8.8c0.1,0.1,0.1,0.2,0.1,0.3c1.6,5.4,7.8,11.3,7.9,11.3
		C120.5,49.8,120.6,50.8,120,51.4z"/>
	<path class="st0" d="M140.9,46.3c0.2,10.8-1.2,17.4-4.2,19.7c-1.6,1.3-3.2,1.8-4.8,2c-4.2,0.4-8.1-2.6-9.9-4.7
		c-0.5-0.7-0.5-1.6,0.2-2.2c0.7-0.5,1.6-0.5,2.2,0.2c0.2,0.3,5.4,6.3,10.4,2.3c2.1-1.6,3.2-8.3,3-17.8c-0.1-3.3-0.3-6.5-0.6-9.1
		c-0.1,3-0.2,6.3-0.8,9.1c-0.9,4.2-2.8,6.5-5.7,6.8c-1.5,0.1-2.8-0.4-3.8-1.4c-2.9-2.8-4-9.9-3.3-21.7c0-0.3,0-0.5,0-0.6
		c0-0.8,0.6-1.5,1.4-1.6c0.9-0.1,1.6,0.6,1.7,1.4c0,0.2,0,0.3,0,1c-0.8,14.5,1.4,18.3,2.4,19.3c0.4,0.4,0.9,0.6,1.4,0.5
		c3.4-0.3,3.6-8.7,3.7-14.2c0.1-5.5,0.2-8.8,2.7-9c0.6-0.1,1.4,0.2,2,1.5C139.6,30,140.7,38.2,140.9,46.3z"/>
	<path class="st1" d="M112.4,63.8c0,0,5.8-3.2,12.8,0.5c7,3.7,2.3,12-5.4,12c-4.5,0-9.8-6-14.7-2.6c0,0-1.8-5.8,4-10.9
		c5.8-5.1,16.4-8,21,2.4C130.1,65.2,121.4,56.3,112.4,63.8z"/>
	<path class="st0" d="M129.7,64.9c-0.5,0.9-1,1.7-1.6,2.4c-0.5-1.1-1.5-2.2-3-3c-6.8-3.6-12.6-0.6-12.8-0.5
		C120.3,56.9,128.2,63.6,129.7,64.9z"/>
</g>
</svg>
